Coordinates
version=1
nRows=5
nColumns=42
inDegrees=yes

Units are S.I. units (second, meters, Newtons, ...)
If the header above contains a line with 'inDegrees', this indicates whether rotational values are in degrees (yes) or radians (no).

endheader
time	pelvis_tilt	pelvis_list	pelvis_rotation	pelvis_tx	pelvis_ty	pelvis_tz	hip_flexion_r	hip_adduction_r	hip_rotation_r	knee_angle_r	knee_adduction_r	knee_angle_r_beta	ankle_angle_r	subtalar_angle_r	mtp_angle_r	hip_flexion_l	hip_adduction_l	hip_rotation_l	knee_angle_l	knee_adduction_l	knee_angle_l_beta	ankle_angle_l	subtalar_angle_l	mtp_angle_l	lumbar_extension	lumbar_bending	lumbar_rotation	arm_flex_r	arm_add_r	arm_rot_r	elbow_flex_r	pro_sup_r	wrist_flex_r	wrist_dev_r	arm_flex_l	arm_add_l	arm_rot_l	elbow_flex_l	pro_sup_l	wrist_flex_l	wrist_dev_l
      1.28000000	      6.76660986	     -1.42255476	      0.27460327	      0.89807556	      0.83212137	     -0.27101174	      0.41470338	     -0.33318523	    -33.01996469	     24.44971855	     -6.28477464	      0.42672809	     26.13103171	     33.37560611	     -7.50434795	     21.43820376	     -7.21846603	    -13.25132957	     61.67179167	     -6.69718529	      1.07637582	     11.49495924	    -12.93282211	     -7.50434795	    -19.65494459	      2.28870351	      5.71252332	      3.57416518	    -17.93165227	     -3.58074700	     37.80631763	     90.00000001	      0.00000000	      0.00000000	     -2.87615732	     -8.25411345	    -23.41884474	     37.90112958	     90.00000001	      0.00000000	      0.00000000
      1.29000000	      6.74512091	     -1.30328193	     -0.29296838	      0.91260572	      0.83206641	     -0.26991764	     -1.13331824	     -0.56909757	    -33.39015873	     23.72685679	     -5.85873064	      0.41411177	     26.53525816	     34.30086094	     -7.50418566	     22.55335552	     -7.09482419	    -14.36337580	     58.61774748	     -6.47646646	      1.02307269	     11.79469928	    -12.82907378	     -7.50418566	    -19.58132668	      1.85153922	      6.80037750	      3.66014145	    -18.30315025	     -3.06164326	     38.30029681	     90.00000001	      0.00000000	      0.00000000	     -3.43656625	     -8.27673961	    -24.95482477	     37.08760028	     90.00000001	      0.00000000	      0.00000000
      1.30000000	      6.65475911	     -1.19149139	     -0.85208919	      0.92713450	      0.83140358	     -0.26899032	     -2.46346517	     -0.91330090	    -34.11766192	     23.29800243	     -5.54447239	      0.40662685	     26.91763364	     35.30573170	     -7.50390554	     23.61195732	     -6.98799027	    -15.71251533	     55.28619308	     -6.40229635	      0.96492610	     12.13202606	    -12.40427577	     -7.50390554	    -19.42714138	      1.44832951	      7.78815791	      3.80830641	    -18.76673641	     -2.24495512	     38.78298363	     90.00000001	      0.00000000	      0.00000000	     -3.99870486	     -8.18747261	    -27.22052674	     36.39537130	     90.00000001	      0.00000000	      0.00000000
      1.31000000	      6.34023595	     -1.45518952	     -1.29130669	      0.94141805	      0.82998255	     -0.26785059	     -3.54647297	     -0.52581686	    -34.38740922	     22.63917750	     -5.45188807	      0.39512819	     27.17867754	     35.27069064	     -7.50382769	     24.91255951	     -7.32937814	    -16.58894384	     51.93711782	     -6.07119744	      0.90647371	     12.41322997	    -12.27736995	     -7.50382769	    -19.05835187	      1.47147905	      8.84407601	      3.96461130	    -19.12291335	     -2.05105022	     39.15233737	     90.00000001	      0.00000000	      0.00000000	     -4.76152345	     -8.39373239	    -27.87743619	     35.85478716	     90.00000001	      0.00000000	      0.00000000
      1.32000000	      6.56316967	     -1.43218384	     -1.84378798	      0.95643050	      0.82894185	     -0.26722372	     -5.28300091	     -0.91996369	    -35.06092953	     22.32496916	     -4.92242839	      0.38964422	     27.63762719	     36.35185681	     -7.50356431	     25.23933279	     -7.37678367	    -18.58813879	     48.06061796	     -6.25547722	      0.83881602	     13.07389174	    -10.59022514	     -7.50356431	    -19.20750750	      1.20338285	      9.76285465	      4.15293184	    -19.74311749	     -1.01021340	     39.67427018	     90.00000001	      0.00000000	      0.00000000	     -5.16531636	     -8.20186453	    -31.02485930	     34.97650464	     90.00000001	      0.00000000	      0.00000000
